<svg width="48" height="48" viewBox="0 0 48 48" fill="none" xmlns="http://www.w3.org/2000/svg">
<g clip-path="url(#clip0_11475_3365)">
<path d="M9.41176 47.8659H7.12605C3.22689 47.8659 0 44.648 0 40.7598V15.0168C6.31933 14.3464 12.3697 14.3464 17.479 15.0168L9.27731 48L9.41176 47.8659ZM38.3193 25.6089C39.395 21.0503 32 16.7598 20.1681 15.1508L15.8655 32.9832C25.8151 33.3855 37.1092 30.4358 38.3193 25.6089ZM40.8739 0H7.12605C3.36134 0 0.268908 2.94972 0 6.70391C28.3697 5.89944 42.084 15.6872 39.9328 25.4749C38.0504 34.324 29.042 37.676 14.3866 38.7486L12.2353 47.8659H40.8739C44.7731 47.8659 48 44.648 48 40.7598V7.10615C48 3.21788 44.7731 0 40.8739 0Z" fill="white"/>
</g>
<defs>
<clipPath id="clip0_11475_3365">
<rect width="48" height="48" fill="white"/>
</clipPath>
</defs>
</svg>
